<svg width="18" height="18" viewBox="0 0 18 18" fill="none" xmlns="http://www.w3.org/2000/svg">
<path fill-rule="evenodd" clip-rule="evenodd" d="M0.558058 0.558058C0.802136 0.313981 1.19786 0.313981 1.44194 0.558058L9 8.11612L16.5581 0.558058C16.8021 0.313981 17.1979 0.313981 17.4419 0.558058C17.686 0.802136 17.686 1.19786 17.4419 1.44194L9.88388 9L17.4419 16.5581C17.686 16.8021 17.686 17.1979 17.4419 17.4419C17.1979 17.686 16.8021 17.686 16.5581 17.4419L9 9.88388L1.44194 17.4419C1.19786 17.686 0.802136 17.686 0.558058 17.4419C0.313981 17.1979 0.313981 16.8021 0.558058 16.5581L8.11612 9L0.558058 1.44194C0.313981 1.19786 0.313981 0.802136 0.558058 0.558058Z" fill="#14171F"/>
</svg>
