<svg width="15" height="15" viewBox="0 0 15 15" fill="none" xmlns="http://www.w3.org/2000/svg">
<path d="M14.4495 4.95747C14.0941 4.17214 13.584 3.46705 12.9362 2.85942C12.2885 2.25753 11.5375 1.78174 10.7006 1.44926C9.835 1.10532 8.91781 0.93335 7.97197 0.93335C7.02613 0.93335 6.10895 1.10532 5.24336 1.44926C4.40644 1.78174 3.6555 2.25179 3.00774 2.85942C2.35999 3.46705 1.84981 4.17214 1.4944 4.95747C1.12753 5.77147 0.938354 6.64278 0.938354 7.53703C0.938354 9.10197 1.52305 10.6038 2.595 11.7962L2.02177 14.9203L5.07139 13.5617C5.98284 13.9515 6.95161 14.1464 7.96624 14.1464C8.91208 14.1464 9.82926 13.9745 10.6948 13.6305C11.5318 13.2981 12.2827 12.828 12.9305 12.2204C13.5782 11.6127 14.0884 10.9077 14.4438 10.1223C14.8107 9.30833 14.9999 8.43701 14.9999 7.54276C15.0056 6.64278 14.8164 5.7772 14.4495 4.95747Z" fill="white"/>
</svg>
