<svg width="121" height="27" viewBox="0 0 121 27" fill="none" xmlns="http://www.w3.org/2000/svg">
<path d="M8.18161 9.46292V3.00012H10.4295V9.46292H8.18161Z" fill="white"/>
<path d="M14.6444 11.4299L2.56181 16.7687V11.4299L13.8015 5.52905L20.8262 5.81004V9.46293L14.6444 11.4299Z" fill="white"/>
<path d="M2.56198 21.2645L23.0743 22.6695C19.7025 17.2744 23.5427 11.4298 25.8843 9.18188C17.1173 11.4298 6.30853 16.4877 2 18.7356L2.56198 21.2645Z" fill="white"/>
<path d="M32.5015 23.0109V9.52729H34.9117V15.4945H34.949L40.685 9.52729H43.5997L36.724 16.5464L36.7427 15.4754L44.0481 23.0109H41.04L34.949 16.7759H34.9117V23.0109H32.5015Z" fill="white"/>
<path d="M47.9764 23.2021C46.818 23.2021 45.9523 22.877 45.3793 22.2267C44.8063 21.5765 44.5198 20.5819 44.5198 19.2431V13.3524H46.8553V19.224C46.8553 19.938 46.9986 20.4672 47.2851 20.8114C47.5715 21.143 48.0075 21.3087 48.5929 21.3087C49.2531 21.3087 49.7887 21.0792 50.1997 20.6202C50.6232 20.1612 50.835 19.5555 50.835 18.8032V13.3524H53.1705V23.0109H50.891V21.0409H51.1526C50.8786 21.7295 50.4613 22.265 49.9008 22.6475C49.3527 23.0173 48.7113 23.2021 47.9764 23.2021Z" fill="white"/>
<path d="M55.7059 23.0109V15.7623C55.7059 15.367 55.6935 14.9654 55.6686 14.5573C55.6436 14.1493 55.6063 13.7477 55.5565 13.3524H57.8172L58.004 15.265H57.7798C58.0788 14.5892 58.521 14.0728 59.1064 13.7158C59.6918 13.346 60.3707 13.1612 61.1429 13.1612C62.2515 13.1612 63.086 13.4799 63.6466 14.1174C64.2071 14.755 64.4873 15.7495 64.4873 17.1011V23.0109H62.1519V17.2158C62.1519 16.438 62.0024 15.8834 61.7034 15.5519C61.417 15.2076 60.981 15.0355 60.3956 15.0355C59.6731 15.0355 59.1002 15.265 58.6767 15.724C58.2532 16.183 58.0414 16.795 58.0414 17.5601V23.0109H55.7059Z" fill="white"/>
<path d="M65.5437 23.0109L70.962 15.6284V16.6803L65.7305 9.52729H68.5518L72.3446 14.9016H71.5786L75.3527 9.52729H78.1927L72.9425 16.6803V15.6284L78.3795 23.0109H75.5396L71.5412 17.3879H72.3633L68.365 23.0109H65.5437Z" fill="white"/>
<path d="M79.4986 23.0109V13.3524H81.8341V23.0109H79.4986ZM79.3679 11.5355V9.20215H81.9649V11.5355H79.3679Z" fill="white"/>
<path d="M84.3703 23.0109V15.7623C84.3703 15.367 84.3578 14.9654 84.3329 14.5573C84.308 14.1493 84.2707 13.7477 84.2208 13.3524H86.4816L86.6684 15.265H86.4442C86.7432 14.5892 87.1853 14.0728 87.7708 13.7158C88.3562 13.346 89.035 13.1612 89.8073 13.1612C90.9159 13.1612 91.7504 13.4799 92.3109 14.1174C92.8715 14.755 93.1517 15.7495 93.1517 17.1011V23.0109H90.8162V17.2158C90.8162 16.438 90.6668 15.8834 90.3678 15.5519C90.0813 15.2076 89.6454 15.0355 89.0599 15.0355C88.3375 15.0355 87.7645 15.265 87.341 15.724C86.9175 16.183 86.7058 16.795 86.7058 17.5601V23.0109H84.3703Z" fill="white"/>
<path d="M102.167 23.2021C100.685 23.2021 99.4396 22.9216 98.4306 22.3606C97.4217 21.7996 96.6619 21.0027 96.1512 19.9699C95.6405 18.9371 95.3852 17.7131 95.3852 16.2978C95.3852 14.8697 95.6592 13.6393 96.2073 12.6065C96.7553 11.561 97.54 10.7577 98.5614 10.1967C99.5953 9.62291 100.835 9.33603 102.28 9.33603C103.239 9.33603 104.079 9.46991 104.802 9.73767C105.524 9.99268 106.16 10.3688 106.708 10.8661L105.904 12.7787C105.506 12.4599 105.126 12.2049 104.764 12.0136C104.403 11.8224 104.03 11.6885 103.643 11.612C103.257 11.5227 102.809 11.4781 102.298 11.4781C100.853 11.4781 99.7572 11.8989 99.0098 12.7404C98.2749 13.5692 97.9075 14.7613 97.9075 16.3169C97.9075 17.8725 98.2562 19.0583 98.9538 19.8743C99.6638 20.6903 100.772 21.0983 102.28 21.0983C102.79 21.0983 103.301 21.0473 103.812 20.9453C104.335 20.8433 104.845 20.6967 105.344 20.5054L104.895 21.5382V17.5027H101.812V15.7049H106.894V22.1885C106.284 22.5072 105.555 22.7559 104.708 22.9344C103.861 23.1129 103.014 23.2021 102.167 23.2021Z" fill="white"/>
<path d="M113.718 23.2021C112.747 23.2021 111.906 22.9981 111.196 22.5901C110.486 22.1821 109.932 21.602 109.533 20.8497C109.147 20.0974 108.954 19.2049 108.954 18.1721C108.954 17.1393 109.147 16.2532 109.533 15.5136C109.932 14.7613 110.486 14.1812 111.196 13.7732C111.906 13.3652 112.747 13.1612 113.718 13.1612C114.69 13.1612 115.531 13.3652 116.241 13.7732C116.963 14.1812 117.517 14.7613 117.904 15.5136C118.302 16.2532 118.501 17.1393 118.501 18.1721C118.501 19.2049 118.302 20.0974 117.904 20.8497C117.517 21.602 116.963 22.1821 116.241 22.5901C115.531 22.9981 114.69 23.2021 113.718 23.2021ZM113.718 21.3661C114.453 21.3661 115.039 21.1047 115.475 20.5819C115.911 20.0464 116.129 19.2431 116.129 18.1721C116.129 17.1011 115.911 16.3042 115.475 15.7814C115.039 15.2586 114.453 14.9972 113.718 14.9972C112.984 14.9972 112.398 15.2586 111.962 15.7814C111.526 16.3042 111.308 17.1011 111.308 18.1721C111.308 19.2431 111.526 20.0464 111.962 20.5819C112.398 21.1047 112.984 21.3661 113.718 21.3661Z" fill="white"/>
</svg>
